HIERARCHY
ROOT Hips
{
	OFFSET -3.958830 18.904000 13.208200
	CHANNELS 6 Xposition Yposition Zposition Zrotation Yrotation Xrotation 
	JOINT LHipJoint
	{
		OFFSET 0.000000 0.000000 0.000000
		CHANNELS 3 Zrotation Yrotation Xrotation
		JOINT LeftUpLeg
		{
			OFFSET 1.800000 -1.400000 0.085000
			CHANNELS 3 Zrotation Yrotation Xrotation
			JOINT LeftLeg
			{
				OFFSET 2.215000 -6.000000 0.000000
				CHANNELS 3 Zrotation Yrotation Xrotation
				JOINT LeftFoot
				{
					OFFSET 2.500000 -6.900000 0.000000
					CHANNELS 3 Zrotation Yrotation Xrotation
					JOINT LeftToeBase
					{
						OFFSET 0.200000 -0.500000 1.950000
						CHANNELS 3 Zrotation Yrotation Xrotation
						End Site
						{
							OFFSET 0.000000 0.000000 0.000000
						}
					}
				}
			}
		}
	}
	JOINT RHipJoint
	{
		OFFSET 0.000000 0.000000 0.000000
		CHANNELS 3 Zrotation Yrotation Xrotation
		JOINT RightUpLeg
		{
			OFFSET -1.800000 -1.400000 0.085000
			CHANNELS 3 Zrotation Yrotation Xrotation
			JOINT RightLeg
			{
				OFFSET -2.215000 -6.000000 0.000000
				CHANNELS 3 Zrotation Yrotation Xrotation
				JOINT RightFoot
				{
					OFFSET -2.500000 -6.900000 0.000000
					CHANNELS 3 Zrotation Yrotation Xrotation
					JOINT RightToeBase
					{
						OFFSET -0.200000 -0.500000 1.950000
						CHANNELS 3 Zrotation Yrotation Xrotation
						End Site
						{
							OFFSET 0.000000 0.000000 0.000000
						}
					}
				}
			}
		}
	}
	JOINT LowerBack
	{
		OFFSET 0.000000 0.000000 0.000000
		CHANNELS 3 Zrotation Yrotation Xrotation
		JOINT Spine
		{
			OFFSET -0.087000 1.940000 -0.288900
			CHANNELS 3 Zrotation Yrotation Xrotation
			JOINT Spine1
			{
				OFFSET 0.000000 1.950000 0.060000
				CHANNELS 3 Zrotation Yrotation Xrotation
				JOINT Neck
				{
					OFFSET 0.000000 0.000000 0.000000
					CHANNELS 3 Zrotation Yrotation Xrotation
					JOINT Neck1
					{
						OFFSET 0.000000 1.600000 0.340000
						CHANNELS 3 Zrotation Yrotation Xrotation
						JOINT Head
						{
							OFFSET 0.000000 1.667000 -0.240000
							CHANNELS 3 Zrotation Yrotation Xrotation
							End Site
							{
								OFFSET 0.000000 0.000000 0.000000
							}
						}
					}
				}
				JOINT LeftShoulder
				{
					OFFSET 0.000000 0.000000 0.000000
					CHANNELS 3 Zrotation Yrotation Xrotation
					JOINT LeftArm
					{
						OFFSET 2.700000 1.550000 -0.730000
						CHANNELS 3 Zrotation Yrotation Xrotation
						JOINT LeftForeArm
						{
							OFFSET 5.450000 0.000000 0.000000
							CHANNELS 3 Zrotation Yrotation Xrotation
							JOINT LeftHand
							{
								OFFSET 3.450000 0.000000 0.000000
								CHANNELS 3 Zrotation Yrotation Xrotation
								JOINT LeftHandIndex1
								{
									OFFSET 0.750000 0.000000 0.000000
									CHANNELS 3 Zrotation Yrotation Xrotation
									End Site
									{
										OFFSET 0.000000 0.000000 0.000000
									}
								}
							}
						}
					}
				}
				JOINT RightShoulder
				{
					OFFSET 0.000000 0.000000 0.000000
					CHANNELS 3 Zrotation Yrotation Xrotation
					JOINT RightArm
					{
						OFFSET -2.700000 1.550000 -0.730000
						CHANNELS 3 Zrotation Yrotation Xrotation
						JOINT RightForeArm
						{
							OFFSET -5.450000 0.000000 0.000000
							CHANNELS 3 Zrotation Yrotation Xrotation
							JOINT RightHand
							{
								OFFSET -3.450000 0.000000 0.000000
								CHANNELS 3 Zrotation Yrotation Xrotation
								JOINT RightHandIndex1
								{
									OFFSET -0.750000 0.000000 0.000000
									CHANNELS 3 Zrotation Yrotation Xrotation
									End Site
									{
										OFFSET 0.000000 0.000000 0.000000
									}
								}
							}
						}
					}
				}
			}
		}
	}
}
MOTION
Frames: 6
Frame Time: 0.016667
-0.383060 16.890240 -10.394140 12.138195 12.199553 -2.268711 -15.775652 10.472858 6.103306 30.311836 -5.864389 -18.981049 -20.554863 49.046623 83.619708 2.984835 19.394324 -1.257543 0.614720 0.614320 0.155270 18.186258 -9.264724 1.595706 -8.465120 -0.784809 -3.560417 10.395332 -5.758074 9.466562 -0.447059 -4.369027 2.711324 0.621130 0.607510 0.334170 -2.607841 -1.362693 -8.571936 -2.560590 3.296958 9.401827 -6.189661 8.442516 19.208711 0.184163 -4.407980 -8.374482 -10.401039 -2.188997 33.607266 0.194710 -7.680420 -13.000230 6.177528 -43.075942 -1.242297 -14.227489 -53.283211 3.231048 51.242599 -32.921564 -20.258334 -4.167758 2.749774 0.199820 0.313330 -0.073580 0.347480 -7.137402 49.869383 1.939214 4.399055 42.876092 -4.488736 -54.743923 52.370716 -27.320517 2.034713 -1.296546 -0.187480 0.545040 0.066190 0.109100 
-0.403910 16.871210 -10.388930 12.617164 12.193843 -2.099938 -15.800082 10.350296 6.342043 30.915551 -6.961516 -20.089310 -24.849905 50.403108 80.492334 2.946880 19.096254 -1.171518 0.606850 0.614810 0.119240 18.172313 -9.181733 1.517295 -8.899285 -0.892366 -3.660325 10.543131 -5.890794 9.818632 -0.440412 -4.377909 2.721271 0.619750 0.637590 0.319750 -2.539726 -1.477033 -8.653240 -3.510092 2.964244 9.765840 -6.701162 8.558768 19.118427 0.073667 -4.852549 -8.533889 -11.235018 -2.007801 33.352321 1.244250 -8.331240 -13.251500 5.699922 -42.860321 -0.856990 -15.459579 -52.538806 2.880523 52.608212 -32.067314 -20.813415 -4.161989 2.728627 0.197270 0.307560 -0.083150 0.367650 -6.545355 49.959102 2.209271 4.437355 43.075496 -4.683629 -58.625168 54.576544 -30.411919 2.006858 -1.190039 -0.192800 0.575670 0.071610 0.133280 
-0.435520 16.853830 -10.379880 12.855113 11.805140 -2.523106 -15.807636 10.273026 6.524231 31.607041 -7.638121 -21.299803 -29.975876 51.217879 75.933236 2.827057 18.553200 -1.068738 0.620670 0.629260 0.102930 18.165579 -9.178075 1.461503 -8.849465 -1.032421 -3.562813 10.377684 -6.062303 10.704441 -0.455181 -4.376596 2.714933 0.623100 0.623280 0.302110 -2.517269 -1.508791 -8.742846 -4.257137 2.763095 10.772050 -6.960623 8.884474 19.279402 -0.124275 -5.590117 -8.681828 -12.701286 -1.808244 33.784891 2.792740 -9.227820 -14.521400 4.806902 -42.569912 -0.432497 -16.772056 -51.739109 2.491604 52.610924 -31.659815 -21.006637 -4.102117 2.720930 0.231400 0.260240 -0.067520 0.374450 -5.328852 50.390596 2.481221 4.540967 43.346462 -4.964977 -60.606863 56.665144 -32.361197 2.013706 -1.084260 -0.191320 0.594030 0.076580 0.143690 
-0.475650 16.828840 -10.367630 13.092028 10.631612 -2.872276 -15.854086 10.244196 6.679710 32.457112 -7.643339 -23.200020 -34.590215 51.576713 71.415777 2.731985 17.980898 -0.950494 0.651710 0.665100 0.122510 18.125981 -9.154160 1.411300 -8.839972 -1.015788 -3.657354 10.312532 -6.202243 11.578877 -0.473379 -4.370153 2.703044 0.625440 0.584780 0.303940 -2.396513 -1.587965 -8.813570 -5.648121 3.258192 11.498673 -6.542513 9.572855 19.383987 -0.390490 -5.637115 -8.910500 -13.012697 -1.867275 34.441042 3.545420 -9.499370 -15.194110 4.083108 -42.520703 -0.599954 -17.153992 -51.451627 2.012166 51.267378 -29.853832 -19.883756 -4.046363 2.769947 0.241910 0.222520 -0.036070 0.379100 -4.118940 50.808583 3.153496 6.030627 42.761762 -5.187865 -63.229476 58.871289 -35.231253 2.044891 -0.988369 -0.160980 0.574910 0.052030 0.151740 
-0.522080 16.805230 -10.337350 13.442993 8.946944 -3.196059 -15.942962 10.350429 6.699818 32.634118 -6.498470 -24.661335 -36.282992 51.077395 68.519223 2.642498 17.646811 -0.885346 0.632590 0.643110 0.098300 18.043140 -9.147001 1.353526 -8.759958 -0.801374 -3.986154 9.987998 -6.346283 13.012198 -0.456870 -4.380166 2.697530 0.611670 0.594620 0.307850 -2.161072 -1.743290 -8.777231 -7.561416 4.378708 11.489652 -5.193023 10.709264 19.801702 -0.514551 -5.850898 -9.302320 -13.554887 -1.793656 35.222452 3.810930 -9.755650 -15.052720 3.852662 -40.837134 0.477619 -21.457604 -52.429122 3.517150 55.892707 -31.485790 -23.371087 -3.988215 2.700965 0.244680 0.223480 -0.041530 0.376320 -3.580650 50.277336 3.750079 8.921957 42.406602 -4.811004 -70.575317 61.800941 -42.105638 2.018653 -0.731029 -0.163110 0.572970 0.068640 0.156620 
-0.556650 16.783150 -10.327380 13.214875 8.277950 -3.246031 -16.012226 10.431582 6.777892 32.310793 -5.593544 -27.803728 -36.777966 49.512709 66.283571 2.570845 17.400621 -0.847260 0.637580 0.635360 0.123100 17.982587 -9.108785 1.328111 -8.242812 -0.498506 -4.700984 9.997764 -6.524999 14.486836 -0.460909 -4.349726 2.698834 0.588730 0.559980 0.311250 -1.983215 -1.925795 -8.831384 -8.686048 4.893813 12.034835 -4.555253 10.976939 19.950403 -0.173334 -6.115533 -10.066752 -14.138089 -1.656819 35.662371 3.827820 -9.630210 -15.485370 1.822460 -39.752988 2.144938 -25.190273 -52.876668 4.075887 61.522376 -33.928301 -27.811697 -3.924842 2.622303 0.268040 0.195290 -0.016130 0.368180 -2.061126 49.842411 4.347146 11.631712 42.412139 -4.451175 -74.414645 64.338589 -46.678531 1.952813 -0.443014 -0.149480 0.552520 0.055850 0.147080 
